<svg width="181" height="63" viewBox="0 0 181 63" fill="none" xmlns="http://www.w3.org/2000/svg">
<g filter="url(#filter0_d_519_3)">
<path d="M39.7144 1L47.3334 21" stroke="#FCF4BF" stroke-width="0.952381"/>
<path d="M34 15.2857L54 5.7619" stroke="#FCF4BF" stroke-width="0.952381"/>
<path d="M47.3334 1L39.7144 19.0952" stroke="#FCF4BF" stroke-width="0.952381"/>
<path d="M34 6.71429L54 15.2857" stroke="#FCF4BF" stroke-width="0.952381"/>
</g>
<ellipse cx="27" cy="35.5" rx="27" ry="27.5" fill="url(#paint0_radial_519_3)"/>
<path d="M19 53L21.6667 60" stroke="white" stroke-width="0.1925"/>
<path d="M17 58L24 54.6667" stroke="white" stroke-width="0.1925"/>
<path d="M21.6667 53L19 59.3333" stroke="white" stroke-width="0.1925"/>
<path d="M17 55L24 58" stroke="white" stroke-width="0.1925"/>
<circle cx="33.5" cy="18.5" r="2.35" stroke="white" stroke-width="0.3"/>
<path d="M35.5608 36.7629C35.2115 36.1195 34.7059 35.6323 34.044 35.3013C33.4006 34.952 32.6376 34.7774 31.7551 34.7774C30.2292 34.7774 29.0066 35.2829 28.0873 36.2941C27.1681 37.2869 26.7085 38.6198 26.7085 40.2928C26.7085 42.0761 27.1865 43.4734 28.1425 44.4846C29.1169 45.4773 30.4498 45.9737 32.1412 45.9737C33.2994 45.9737 34.2738 45.6796 35.0644 45.0913C35.8733 44.5029 36.4616 43.6572 36.8293 42.5541H30.8451V39.0794H41.1038V43.4642C40.7545 44.6408 40.157 45.7347 39.3113 46.7459C38.484 47.7571 37.4268 48.5752 36.1399 49.2003C34.853 49.8253 33.4006 50.1379 31.7827 50.1379C29.8707 50.1379 28.1609 49.7242 26.6533 48.8969C25.1642 48.0512 23.9967 46.8838 23.151 45.3946C22.3237 43.9054 21.91 42.2048 21.91 40.2928C21.91 38.3808 22.3237 36.6802 23.151 35.191C23.9967 33.6835 25.1642 32.516 26.6533 31.6887C28.1425 30.843 29.8431 30.4202 31.7551 30.4202C34.0716 30.4202 36.0204 30.9809 37.6015 32.1024C39.201 33.2238 40.2581 34.7774 40.7729 36.7629H35.5608ZM42.2267 42.2784C42.2267 40.6973 42.5209 39.3092 43.1092 38.1142C43.7159 36.9192 44.534 36 45.5636 35.3565C46.5931 34.713 47.7422 34.3913 49.0107 34.3913C50.0954 34.3913 51.0422 34.6119 51.8512 35.0531C52.6785 35.4944 53.3128 36.0735 53.754 36.7905V34.6119H58.4697V50H53.754V47.8214C53.2944 48.5384 52.6509 49.1175 51.8236 49.5588C51.0147 50 50.0678 50.2206 48.9831 50.2206C47.733 50.2206 46.5931 49.8989 45.5636 49.2554C44.534 48.5936 43.7159 47.6651 43.1092 46.4701C42.5209 45.2567 42.2267 43.8595 42.2267 42.2784ZM53.754 42.306C53.754 41.1293 53.4231 40.2009 52.7612 39.5206C52.1178 38.8404 51.3272 38.5003 50.3896 38.5003C49.452 38.5003 48.6522 38.8404 47.9904 39.5206C47.3469 40.1825 47.0252 41.1017 47.0252 42.2784C47.0252 43.455 47.3469 44.3926 47.9904 45.0913C48.6522 45.7715 49.452 46.1116 50.3896 46.1116C51.3272 46.1116 52.1178 45.7715 52.7612 45.0913C53.4231 44.411 53.754 43.4826 53.754 42.306ZM80.9648 34.4464C82.8768 34.4464 84.3935 35.0256 85.515 36.1838C86.6549 37.342 87.2248 38.9507 87.2248 41.0098V50H82.5367V41.6441C82.5367 40.6513 82.2701 39.8883 81.7369 39.3552C81.2221 38.8036 80.5051 38.5279 79.5859 38.5279C78.6667 38.5279 77.9405 38.8036 77.4073 39.3552C76.8925 39.8883 76.6351 40.6513 76.6351 41.6441V50H71.947V41.6441C71.947 40.6513 71.6804 39.8883 71.1473 39.3552C70.6325 38.8036 69.9155 38.5279 68.9962 38.5279C68.077 38.5279 67.3508 38.8036 66.8176 39.3552C66.3029 39.8883 66.0455 40.6513 66.0455 41.6441V50H61.3298V34.6119H66.0455V36.5423C66.5235 35.8988 67.1486 35.3933 67.9207 35.0256C68.6929 34.6395 69.5662 34.4464 70.5406 34.4464C71.6988 34.4464 72.7284 34.6946 73.6292 35.191C74.5485 35.6874 75.2655 36.3952 75.7802 37.3145C76.3134 36.4688 77.0396 35.7793 77.9588 35.2462C78.8781 34.713 79.8801 34.4464 80.9648 34.4464ZM104.477 42.0578C104.477 42.499 104.449 42.9586 104.394 43.4366H93.7218C93.7954 44.3926 94.0987 45.128 94.6319 45.6428C95.1834 46.1392 95.8545 46.3874 96.645 46.3874C97.8216 46.3874 98.6398 45.891 99.0994 44.8982H104.118C103.861 45.9094 103.392 46.8194 102.712 47.6284C102.05 48.4373 101.214 49.0716 100.202 49.5312C99.1913 49.9908 98.0606 50.2206 96.8105 50.2206C95.3029 50.2206 93.9608 49.8989 92.7842 49.2554C91.6076 48.6119 90.6883 47.6927 90.0265 46.4977C89.3646 45.3027 89.0337 43.9054 89.0337 42.306C89.0337 40.7065 89.3554 39.3092 89.9989 38.1142C90.6607 36.9192 91.58 36 92.7566 35.3565C93.9332 34.713 95.2845 34.3913 96.8105 34.3913C98.2996 34.3913 99.6234 34.7038 100.782 35.3289C101.94 35.954 102.841 36.8457 103.484 38.0039C104.146 39.1621 104.477 40.5134 104.477 42.0578ZM99.6509 40.8168C99.6509 40.0078 99.3752 39.3644 98.8236 38.8864C98.2721 38.4084 97.5826 38.1694 96.7553 38.1694C95.9648 38.1694 95.2937 38.3992 94.7422 38.8588C94.209 39.3184 93.8781 39.9711 93.7494 40.8168H99.6509ZM111.129 36.7905C111.588 36.0735 112.223 35.4944 113.032 35.0531C113.841 34.6119 114.787 34.3913 115.872 34.3913C117.141 34.3913 118.29 34.713 119.319 35.3565C120.349 36 121.158 36.9192 121.746 38.1142C122.353 39.3092 122.656 40.6973 122.656 42.2784C122.656 43.8595 122.353 45.2567 121.746 46.4701C121.158 47.6651 120.349 48.5936 119.319 49.2554C118.29 49.8989 117.141 50.2206 115.872 50.2206C114.806 50.2206 113.859 50 113.032 49.5588C112.223 49.1175 111.588 48.5476 111.129 47.849V57.3355H106.413V34.6119H111.129V36.7905ZM117.858 42.2784C117.858 41.1017 117.527 40.1825 116.865 39.5206C116.221 38.8404 115.422 38.5003 114.466 38.5003C113.528 38.5003 112.728 38.8404 112.066 39.5206C111.423 40.2009 111.101 41.1293 111.101 42.306C111.101 43.4826 111.423 44.411 112.066 45.0913C112.728 45.7715 113.528 46.1116 114.466 46.1116C115.403 46.1116 116.203 45.7715 116.865 45.0913C117.527 44.3926 117.858 43.455 117.858 42.2784ZM123.641 42.2784C123.641 40.6973 123.935 39.3092 124.523 38.1142C125.13 36.9192 125.948 36 126.978 35.3565C128.007 34.713 129.156 34.3913 130.425 34.3913C131.51 34.3913 132.456 34.6119 133.265 35.0531C134.093 35.4944 134.727 36.0735 135.168 36.7905V34.6119H139.884V50H135.168V47.8214C134.709 48.5384 134.065 49.1175 133.238 49.5588C132.429 50 131.482 50.2206 130.397 50.2206C129.147 50.2206 128.007 49.8989 126.978 49.2554C125.948 48.5936 125.13 47.6651 124.523 46.4701C123.935 45.2567 123.641 43.8595 123.641 42.2784ZM135.168 42.306C135.168 41.1293 134.837 40.2009 134.175 39.5206C133.532 38.8404 132.741 38.5003 131.804 38.5003C130.866 38.5003 130.066 38.8404 129.405 39.5206C128.761 40.1825 128.439 41.1017 128.439 42.2784C128.439 43.455 128.761 44.3926 129.405 45.0913C130.066 45.7715 130.866 46.1116 131.804 46.1116C132.741 46.1116 133.532 45.7715 134.175 45.0913C134.837 44.411 135.168 43.4826 135.168 42.306ZM147.46 37.1766C148.011 36.3309 148.701 35.669 149.528 35.191C150.355 34.6946 151.275 34.4464 152.286 34.4464V39.4379H150.99C149.813 39.4379 148.931 39.6953 148.342 40.2101C147.754 40.7065 147.46 41.5889 147.46 42.8575V50H142.744V34.6119H147.46V37.1766ZM162.565 46.0013V50H160.166C158.456 50 157.123 49.5863 156.167 48.759C155.211 47.9133 154.733 46.5437 154.733 44.65V38.5279H152.858V34.6119H154.733V30.8614H159.448V34.6119H162.537V38.5279H159.448V44.7052C159.448 45.1648 159.559 45.4957 159.779 45.698C160 45.9002 160.368 46.0013 160.883 46.0013H162.565ZM180.359 34.6119L170.707 57.308H165.633L169.163 49.476L162.903 34.6119H168.17L171.727 44.2364L175.257 34.6119H180.359Z" fill="#598CAE"/>
<path d="M35.5608 36.7629L34.6819 37.24L34.9658 37.7629H35.5608V36.7629ZM34.044 35.3013L33.5669 36.1802L33.5817 36.1882L33.5968 36.1958L34.044 35.3013ZM28.0873 36.2941L28.8211 36.9735L28.8273 36.9668L28.0873 36.2941ZM28.1425 44.4846L27.4159 45.1716L27.4223 45.1784L27.4288 45.185L28.1425 44.4846ZM35.0644 45.0913L34.4762 44.2825L34.4674 44.289L35.0644 45.0913ZM36.8293 42.5541L37.778 42.8704L38.2168 41.5541H36.8293V42.5541ZM30.8451 42.5541H29.8451V43.5541H30.8451V42.5541ZM30.8451 39.0794V38.0794H29.8451V39.0794H30.8451ZM41.1038 39.0794H42.1038V38.0794H41.1038V39.0794ZM41.1038 43.4642L42.0625 43.7488L42.1038 43.6095V43.4642H41.1038ZM39.3113 46.7459L38.5442 46.1043L38.5373 46.1126L39.3113 46.7459ZM36.1399 49.2003L35.703 48.3008L36.1399 49.2003ZM26.6533 48.8969L26.1595 49.7665L26.1658 49.7701L26.1722 49.7736L26.6533 48.8969ZM23.151 45.3946L22.2768 45.8803L22.2815 45.8884L23.151 45.3946ZM23.151 35.191L22.2789 34.7018L22.2769 34.7054L23.151 35.191ZM26.6533 31.6887L27.139 32.5629L27.1472 32.5583L26.6533 31.6887ZM37.6015 32.1024L37.0229 32.918L37.0274 32.9212L37.6015 32.1024ZM40.7729 36.7629V37.7629H42.0652L41.7409 36.512L40.7729 36.7629ZM36.4396 36.2858C35.9915 35.4603 35.3342 34.8284 34.4912 34.4069L33.5968 36.1958C34.0775 36.4361 34.4315 36.7786 34.6819 37.24L36.4396 36.2858ZM34.5211 34.4225C33.704 33.9789 32.7702 33.7774 31.7551 33.7774V35.7774C32.505 35.7774 33.0972 35.9252 33.5669 36.1802L34.5211 34.4225ZM31.7551 33.7774C29.9839 33.7774 28.4794 34.3762 27.3474 35.6214L28.8273 36.9668C29.5338 36.1897 30.4744 35.7774 31.7551 35.7774V33.7774ZM27.3536 35.6147C26.225 36.8335 25.7085 38.4303 25.7085 40.2928H27.7085C27.7085 38.8093 28.1112 37.7402 28.8211 36.9735L27.3536 35.6147ZM25.7085 40.2928C25.7085 42.2569 26.2389 43.9267 27.4159 45.1716L28.8692 43.7975C28.134 43.02 27.7085 41.8953 27.7085 40.2928H25.7085ZM27.4288 45.185C28.6306 46.4095 30.2433 46.9737 32.1412 46.9737V44.9737C30.6563 44.9737 29.6032 44.5452 28.8562 43.7841L27.4288 45.185ZM32.1412 46.9737C33.4755 46.9737 34.6694 46.6317 35.6614 45.8935L34.4674 44.289C33.8783 44.7274 33.1234 44.9737 32.1412 44.9737V46.9737ZM35.6526 45.9C36.6563 45.17 37.3555 44.138 37.778 42.8704L35.8807 42.2379C35.5678 43.1765 35.0904 43.8359 34.4762 44.2825L35.6526 45.9ZM36.8293 41.5541H30.8451V43.5541H36.8293V41.5541ZM31.8451 42.5541V39.0794H29.8451V42.5541H31.8451ZM30.8451 40.0794H41.1038V38.0794H30.8451V40.0794ZM40.1038 39.0794V43.4642H42.1038V39.0794H40.1038ZM40.1452 43.1796C39.8375 44.216 39.3089 45.19 38.5442 46.1043L40.0784 47.3874C41.005 46.2795 41.6715 45.0657 42.0625 43.7488L40.1452 43.1796ZM38.5373 46.1126C37.8102 47.0014 36.8722 47.7329 35.703 48.3008L36.5768 50.0998C37.9815 49.4175 39.1578 48.5127 40.0852 47.3791L38.5373 46.1126ZM35.703 48.3008C34.5691 48.8515 33.2691 49.1379 31.7827 49.1379V51.1379C33.532 51.1379 35.1369 50.7992 36.5768 50.0998L35.703 48.3008ZM31.7827 49.1379C30.0197 49.1379 28.4786 48.7579 27.1344 48.0202L26.1722 49.7736C27.8432 50.6906 29.7217 51.1379 31.7827 51.1379V49.1379ZM27.1472 48.0273C25.8148 47.2707 24.7772 46.2331 24.0206 44.9008L22.2815 45.8884C23.2162 47.5344 24.5135 48.8317 26.1595 49.7665L27.1472 48.0273ZM24.0252 44.909C23.2901 43.5858 22.91 42.0561 22.91 40.2928H20.91C20.91 42.3536 21.3573 44.225 22.2769 45.8802L24.0252 44.909ZM22.91 40.2928C22.91 38.5296 23.2901 36.9998 24.0252 35.6767L22.2769 34.7054C21.3573 36.3606 20.91 38.232 20.91 40.2928H22.91ZM24.0232 35.6803C24.7796 34.3319 25.8143 33.2988 27.139 32.5629L26.1677 30.8146C24.514 31.7333 23.2139 33.0351 22.2789 34.7018L24.0232 35.6803ZM27.1472 32.5583C28.4688 31.8077 29.9956 31.4202 31.7551 31.4202V29.4202C29.6906 29.4202 27.8162 29.8783 26.1595 30.8192L27.1472 32.5583ZM31.7551 31.4202C33.9057 31.4202 35.6418 31.9384 37.023 32.918L38.18 31.2867C36.399 30.0234 34.2375 29.4202 31.7551 29.4202V31.4202ZM37.0274 32.9212C38.4219 33.8989 39.3465 35.2459 39.8049 37.0139L41.7409 36.512C41.1697 34.3088 39.98 32.5487 38.1756 31.2836L37.0274 32.9212ZM40.7729 35.7629H35.5608V37.7629H40.7729V35.7629ZM43.1092 38.1142L42.2175 37.6615L42.212 37.6725L43.1092 38.1142ZM45.5636 35.3565L46.0936 36.2045L46.0936 36.2045L45.5636 35.3565ZM51.8512 35.0531L51.3723 35.9311L51.3806 35.9355L51.8512 35.0531ZM53.754 36.7905L52.9023 37.3146L54.754 40.3235V36.7905H53.754ZM53.754 34.6119V33.6119H52.754V34.6119H53.754ZM58.4697 34.6119H59.4697V33.6119H58.4697V34.6119ZM58.4697 50V51H59.4697V50H58.4697ZM53.754 50H52.754V51H53.754V50ZM53.754 47.8214H54.754V44.4084L52.9121 47.2817L53.754 47.8214ZM51.8236 49.5588L51.353 48.6764L51.3447 48.6809L51.8236 49.5588ZM45.5636 49.2554L45.0228 50.0967L45.0336 50.1034L45.5636 49.2554ZM43.1092 46.4701L42.2094 46.9064L42.2134 46.9146L42.2175 46.9228L43.1092 46.4701ZM52.7612 39.5206L52.0347 40.2079L52.0445 40.218L52.7612 39.5206ZM47.9904 39.5206L47.2736 38.8233L47.2734 38.8236L47.9904 39.5206ZM47.9904 45.0913L47.2548 45.7687L47.2641 45.7788L47.2736 45.7886L47.9904 45.0913ZM52.7612 45.0913L52.0444 44.3938L52.0348 44.4041L52.7612 45.0913ZM43.2267 42.2784C43.2267 40.822 43.4972 39.5901 44.0064 38.5559L42.212 37.6725C41.5445 39.0284 41.2267 40.5725 41.2267 42.2784H43.2267ZM44.0009 38.5669C44.534 37.5167 45.234 36.7417 46.0936 36.2045L45.0336 34.5085C43.834 35.2582 42.8978 36.3216 42.2175 37.6615L44.0009 38.5669ZM46.0936 36.2045C46.9569 35.6649 47.9208 35.3913 49.0107 35.3913V33.3913C47.5636 33.3913 46.2294 33.7611 45.0336 34.5085L46.0936 36.2045ZM49.0107 35.3913C49.9578 35.3913 50.7343 35.583 51.3723 35.931L52.33 34.1752C51.3502 33.6408 50.233 33.3913 49.0107 33.3913V35.3913ZM51.3806 35.9355C52.0696 36.303 52.5644 36.7654 52.9023 37.3146L54.6057 36.2664C54.0612 35.3816 53.2874 34.6858 52.3218 34.1708L51.3806 35.9355ZM54.754 36.7905V34.6119H52.754V36.7905H54.754ZM53.754 35.6119H58.4697V33.6119H53.754V35.6119ZM57.4697 34.6119V50H59.4697V34.6119H57.4697ZM58.4697 49H53.754V51H58.4697V49ZM54.754 50V47.8214H52.754V50H54.754ZM52.9121 47.2817C52.554 47.8404 52.0449 48.3074 51.353 48.6764L52.2942 50.4411C53.2569 49.9276 54.0348 49.2364 54.5959 48.3611L52.9121 47.2817ZM51.3447 48.6809C50.7067 49.0289 49.9302 49.2206 48.9831 49.2206V51.2206C50.2055 51.2206 51.3226 50.9711 52.3024 50.4367L51.3447 48.6809ZM48.9831 49.2206C47.9145 49.2206 46.9593 48.9485 46.0936 48.4074L45.0336 50.1034C46.2269 50.8493 47.5514 51.2206 48.9831 51.2206V49.2206ZM46.1043 48.4142C45.2381 47.8574 44.535 47.0696 44.0009 46.0174L42.2175 46.9228C42.8968 48.2607 43.8299 49.3297 45.0228 50.0966L46.1043 48.4142ZM44.009 46.0338C43.4971 44.978 43.2267 43.7343 43.2267 42.2784H41.2267C41.2267 43.9847 41.5447 45.5355 42.2094 46.9064L44.009 46.0338ZM54.754 42.306C54.754 40.9347 54.3627 39.7326 53.4779 38.8233L52.0445 40.218C52.4834 40.6691 52.754 41.3239 52.754 42.306H54.754ZM53.4877 38.8334C52.6551 37.9532 51.6016 37.5003 50.3896 37.5003V39.5003C51.0528 39.5003 51.5805 39.7276 52.0348 40.2078L53.4877 38.8334ZM50.3896 37.5003C49.1783 37.5003 48.1212 37.9522 47.2736 38.8233L48.7071 40.218C49.1833 39.7286 49.7256 39.5003 50.3896 39.5003V37.5003ZM47.2734 38.8236C46.4023 39.7196 46.0252 40.9161 46.0252 42.2784H48.0252C48.0252 41.2874 48.2915 40.6454 48.7074 40.2177L47.2734 38.8236ZM46.0252 42.2784C46.0252 43.6433 46.4031 44.844 47.2548 45.7687L48.7259 44.4138C48.2907 43.9412 48.0252 43.2667 48.0252 42.2784H46.0252ZM47.2736 45.7886C48.1212 46.6597 49.1783 47.1116 50.3896 47.1116V45.1116C49.7256 45.1116 49.1833 44.8833 48.7071 44.3939L47.2736 45.7886ZM50.3896 47.1116C51.6016 47.1116 52.6551 46.6587 53.4877 45.7785L52.0348 44.4041C51.5805 44.8843 51.0528 45.1116 50.3896 45.1116V47.1116ZM53.4779 45.7886C54.3627 44.8793 54.754 43.6772 54.754 42.306H52.754C52.754 43.288 52.4834 43.9428 52.0445 44.3939L53.4779 45.7886ZM85.515 36.1838L84.7966 36.8794L84.8023 36.8852L85.515 36.1838ZM87.2248 50V51H88.2248V50H87.2248ZM82.5367 50H81.5367V51H82.5367V50ZM81.7369 39.3552L81.0059 40.0375L81.0176 40.0501L81.0298 40.0623L81.7369 39.3552ZM77.4073 39.3552L76.6883 38.6602L76.6879 38.6606L77.4073 39.3552ZM76.6351 50V51H77.6351V50H76.6351ZM71.947 50H70.947V51H71.947V50ZM71.1473 39.3552L70.4162 40.0375L70.428 40.0501L70.4402 40.0623L71.1473 39.3552ZM66.8176 39.3552L66.0987 38.6602L66.0982 38.6606L66.8176 39.3552ZM66.0455 50V51H67.0455V50H66.0455ZM61.3298 50H60.3298V51H61.3298V50ZM61.3298 34.6119V33.6119H60.3298V34.6119H61.3298ZM66.0455 34.6119H67.0455V33.6119H66.0455V34.6119ZM66.0455 36.5423H65.0455V39.5654L66.8482 37.1386L66.0455 36.5423ZM67.9207 35.0256L68.3507 35.9284L68.3593 35.9243L68.3679 35.92L67.9207 35.0256ZM73.6292 35.191L73.1466 36.0669L73.1541 36.0709L73.6292 35.191ZM75.7802 37.3145L74.9077 37.8031L75.7294 39.2703L76.6262 37.8478L75.7802 37.3145ZM80.9648 35.4464C82.6604 35.4464 83.8982 35.9516 84.7966 36.8794L86.2334 35.4882C84.8888 34.0995 83.0932 33.4464 80.9648 33.4464V35.4464ZM84.8023 36.8852C85.7122 37.8098 86.2248 39.1396 86.2248 41.0098H88.2248C88.2248 38.7618 87.5975 36.8743 86.2277 35.4824L84.8023 36.8852ZM86.2248 41.0098V50H88.2248V41.0098H86.2248ZM87.2248 49H82.5367V51H87.2248V49ZM83.5367 50V41.6441H81.5367V50H83.5367ZM83.5367 41.6441C83.5367 40.4733 83.2185 39.4225 82.444 38.6481L81.0298 40.0623C81.3217 40.3542 81.5367 40.8294 81.5367 41.6441H83.5367ZM82.468 38.6729C81.7238 37.8755 80.7171 37.5279 79.5859 37.5279V39.5279C80.2932 39.5279 80.7205 39.7318 81.0059 40.0375L82.468 38.6729ZM79.5859 37.5279C78.4534 37.5279 77.4466 37.8757 76.6883 38.6602L78.1263 40.0502C78.4343 39.7316 78.8799 39.5279 79.5859 39.5279V37.5279ZM76.6879 38.6606C75.9389 39.4363 75.6351 40.4824 75.6351 41.6441H77.6351C77.6351 40.8202 77.8462 40.3403 78.1267 40.0498L76.6879 38.6606ZM75.6351 41.6441V50H77.6351V41.6441H75.6351ZM76.6351 49H71.947V51H76.6351V49ZM72.947 50V41.6441H70.947V50H72.947ZM72.947 41.6441C72.947 40.4733 72.6288 39.4225 71.8544 38.6481L70.4402 40.0623C70.732 40.3542 70.947 40.8294 70.947 41.6441H72.947ZM71.8783 38.6729C71.1341 37.8755 70.1275 37.5279 68.9962 37.5279V39.5279C69.7035 39.5279 70.1309 39.7318 70.4162 40.0375L71.8783 38.6729ZM68.9962 37.5279C67.8638 37.5279 66.857 37.8757 66.0987 38.6602L67.5366 40.0502C67.8446 39.7316 68.2902 39.5279 68.9962 39.5279V37.5279ZM66.0982 38.6606C65.3492 39.4363 65.0455 40.4824 65.0455 41.6441H67.0455C67.0455 40.8202 67.2565 40.3403 67.537 40.0498L66.0982 38.6606ZM65.0455 41.6441V50H67.0455V41.6441H65.0455ZM66.0455 49H61.3298V51H66.0455V49ZM62.3298 50V34.6119H60.3298V50H62.3298ZM61.3298 35.6119H66.0455V33.6119H61.3298V35.6119ZM65.0455 34.6119V36.5423H67.0455V34.6119H65.0455ZM66.8482 37.1386C67.2224 36.635 67.7158 36.2307 68.3507 35.9284L67.4908 34.1227C66.5813 34.5558 65.8246 35.1627 65.2427 35.946L66.8482 37.1386ZM68.3679 35.92C68.9843 35.6118 69.7013 35.4464 70.5406 35.4464V33.4464C69.4311 33.4464 68.4015 33.6671 67.4735 34.1311L68.3679 35.92ZM70.5406 35.4464C71.5517 35.4464 72.4114 35.6618 73.1466 36.0669L74.1118 34.3152C73.0453 33.7275 71.846 33.4464 70.5406 33.4464V35.4464ZM73.1541 36.0709C73.9049 36.4764 74.4848 37.0478 74.9077 37.8031L76.6527 36.8259C76.0461 35.7426 75.192 34.8984 74.1044 34.3111L73.1541 36.0709ZM76.6262 37.8478C77.0677 37.1474 77.6721 36.5685 78.4606 36.1112L77.4571 34.3811C76.4071 34.9902 75.5591 35.7901 74.9343 36.7812L76.6262 37.8478ZM78.4606 36.1112C79.2241 35.6684 80.0524 35.4464 80.9648 35.4464V33.4464C79.7077 33.4464 78.5321 33.7577 77.4571 34.3811L78.4606 36.1112ZM104.394 43.4366V44.4366H105.285L105.388 43.5512L104.394 43.4366ZM93.7218 43.4366V42.4366H92.6419L92.7248 43.5133L93.7218 43.4366ZM94.6319 45.6428L93.9373 46.3622L93.9499 46.3744L93.9629 46.3861L94.6319 45.6428ZM99.0994 44.8982V43.8982H98.4604L98.1919 44.4781L99.0994 44.8982ZM104.118 44.8982L105.088 45.1449L105.405 43.8982H104.118V44.8982ZM102.712 47.6284L101.947 46.9847L101.938 46.9951L102.712 47.6284ZM100.202 49.5312L100.616 50.4416L100.202 49.5312ZM92.7842 49.2554L92.3044 50.1328L92.3044 50.1328L92.7842 49.2554ZM90.0265 46.4977L90.9013 46.0132L90.9013 46.0132L90.0265 46.4977ZM89.9989 38.1142L89.124 37.6297L89.1184 37.6401L89.9989 38.1142ZM92.7566 35.3565L93.2364 36.2339L93.2364 36.2339L92.7566 35.3565ZM100.782 35.3289L100.307 36.2089L100.307 36.2089L100.782 35.3289ZM103.484 38.0039L102.61 38.4896L102.616 38.5L103.484 38.0039ZM99.6509 40.8168V41.8168H100.651V40.8168H99.6509ZM98.8236 38.8864L99.4785 38.1307L99.4785 38.1307L98.8236 38.8864ZM94.7422 38.8588L94.102 38.0906L94.0956 38.0959L94.0892 38.1014L94.7422 38.8588ZM93.7494 40.8168L92.7608 40.6663L92.5857 41.8168H93.7494V40.8168ZM103.477 42.0578C103.477 42.4574 103.452 42.8787 103.401 43.322L105.388 43.5512C105.447 43.0386 105.477 42.5405 105.477 42.0578H103.477ZM104.394 42.4366H93.7218V44.4366H104.394V42.4366ZM92.7248 43.5133C92.8114 44.6398 93.1814 45.6324 93.9373 46.3622L95.3265 44.9234C95.0161 44.6237 94.7793 44.1454 94.7189 43.3599L92.7248 43.5133ZM93.9629 46.3861C94.7108 47.0592 95.625 47.3874 96.645 47.3874V45.3874C96.0839 45.3874 95.6561 45.2192 95.3008 44.8995L93.9629 46.3861ZM96.645 47.3874C97.3743 47.3874 98.062 47.2327 98.6598 46.87C99.2622 46.5045 99.7059 45.9684 100.007 45.3183L98.1919 44.4781C98.0333 44.8208 97.838 45.0293 97.6223 45.1601C97.402 45.2939 97.0923 45.3874 96.645 45.3874V47.3874ZM99.0994 45.8982H104.118V43.8982H99.0994V45.8982ZM103.149 44.6515C102.93 45.5148 102.531 46.2896 101.947 46.9848L103.477 48.272C104.253 47.3493 104.793 46.304 105.088 45.1449L103.149 44.6515ZM101.938 46.9951C101.379 47.6779 100.669 48.2206 99.7887 48.6208L100.616 50.4416C101.758 49.9225 102.721 49.1967 103.486 48.2616L101.938 46.9951ZM99.7887 48.6208C98.9229 49.0144 97.9359 49.2206 96.8105 49.2206V51.2206C98.1854 51.2206 99.4597 50.9673 100.616 50.4416L99.7887 48.6208ZM96.8105 49.2206C95.4495 49.2206 94.276 48.9315 93.264 48.378L92.3044 50.1328C93.6456 50.8663 95.1564 51.2206 96.8105 51.2206V49.2206ZM93.264 48.378C92.2568 47.8272 91.4731 47.0457 90.9013 46.0132L89.1517 46.9822C89.9035 48.3397 90.9583 49.3966 92.3044 50.1328L93.264 48.378ZM90.9013 46.0132C90.3346 44.99 90.0337 43.765 90.0337 42.306H88.0337C88.0337 44.0458 88.3947 45.6154 89.1517 46.9822L90.9013 46.0132ZM90.0337 42.306C90.0337 40.8424 90.3273 39.6136 90.8794 38.5883L89.1184 37.6401C88.3836 39.0048 88.0337 40.5705 88.0337 42.306H90.0337ZM90.8737 38.5987C91.4456 37.5662 92.2293 36.7847 93.2364 36.2339L92.2768 34.4791C90.9307 35.2153 89.8759 36.2722 89.1241 37.6297L90.8737 38.5987ZM93.2364 36.2339C94.2467 35.6814 95.4288 35.3913 96.8105 35.3913V33.3913C95.1402 33.3913 93.6198 33.7447 92.2768 34.4791L93.2364 36.2339ZM96.8105 35.3913C98.1559 35.3913 99.3126 35.6725 100.307 36.2089L101.257 34.4489C99.9341 33.7352 98.4434 33.3913 96.8105 33.3913V35.3913ZM100.307 36.2089C101.296 36.7427 102.059 37.497 102.61 38.4895L104.358 37.5183C103.623 36.1943 102.584 35.1653 101.257 34.4489L100.307 36.2089ZM102.616 38.5C103.179 39.4848 103.477 40.6597 103.477 42.0578H105.477C105.477 40.3671 105.113 38.8395 104.352 37.5078L102.616 38.5ZM100.651 40.8168C100.651 39.7531 100.275 38.8206 99.4785 38.1307L98.1687 39.6421C98.4757 39.9082 98.6509 40.2626 98.6509 40.8168H100.651ZM99.4785 38.1307C98.7209 37.474 97.789 37.1694 96.7553 37.1694V39.1694C97.3763 39.1694 97.8233 39.3427 98.1687 39.6421L99.4785 38.1307ZM96.7553 37.1694C95.7561 37.1694 94.8518 37.4658 94.102 38.0906L95.3824 39.627C95.7357 39.3326 96.1734 39.1694 96.7553 39.1694V37.1694ZM94.0892 38.1014C93.3386 38.7485 92.9173 39.6377 92.7608 40.6663L94.738 40.9672C94.8389 40.3045 95.0795 39.8883 95.3951 39.6162L94.0892 38.1014ZM93.7494 41.8168H99.6509V39.8168H93.7494V41.8168ZM111.129 36.7905H110.129V40.2035L111.971 37.3302L111.129 36.7905ZM113.032 35.0531L112.553 34.1752L112.553 34.1752L113.032 35.0531ZM119.319 35.3565L118.789 36.2045L118.789 36.2045L119.319 35.3565ZM121.746 38.1142L120.849 38.5559L120.854 38.5669L121.746 38.1142ZM121.746 46.4701L120.852 46.0229L120.849 46.0284L121.746 46.4701ZM119.319 49.2554L119.849 50.1035L119.86 50.0966L119.319 49.2554ZM113.032 49.5588L112.553 50.4367L112.561 50.4411L113.032 49.5588ZM111.129 47.849L111.964 47.2994L110.129 44.5095V47.849H111.129ZM111.129 57.3355V58.3355H112.129V57.3355H111.129ZM106.413 57.3355H105.413V58.3355H106.413V57.3355ZM106.413 34.6119V33.6119H105.413V34.6119H106.413ZM111.129 34.6119H112.129V33.6119H111.129V34.6119ZM116.865 39.5206L116.138 40.2078L116.148 40.2179L116.158 40.2278L116.865 39.5206ZM112.066 39.5206L111.35 38.8232L111.34 38.8334L112.066 39.5206ZM112.066 45.0913L111.34 45.7785L111.35 45.7886L112.066 45.0913ZM116.865 45.0913L117.582 45.7887L117.591 45.779L116.865 45.0913ZM111.971 37.3302C112.332 36.7661 112.837 36.2986 113.511 35.931L112.553 34.1752C111.609 34.6902 110.845 35.3809 110.287 36.2508L111.971 37.3302ZM113.511 35.931C114.149 35.583 114.925 35.3913 115.872 35.3913V33.3913C114.65 33.3913 113.533 33.6408 112.553 34.1752L113.511 35.931ZM115.872 35.3913C116.962 35.3913 117.926 35.6649 118.789 36.2045L119.849 34.5085C118.654 33.7611 117.319 33.3913 115.872 33.3913V35.3913ZM118.789 36.2045C119.646 36.7399 120.335 37.5111 120.849 38.5559L122.643 37.6725C121.981 36.3273 121.052 35.2601 119.849 34.5085L118.789 36.2045ZM120.854 38.5669C121.378 39.5985 121.656 40.8264 121.656 42.2784H123.656C123.656 40.5681 123.327 39.0199 122.638 37.6615L120.854 38.5669ZM121.656 42.2784C121.656 43.7299 121.378 44.9696 120.852 46.0229L122.641 46.9173C123.327 45.5438 123.656 43.9891 123.656 42.2784H121.656ZM120.849 46.0284C120.334 47.0752 119.642 47.8593 118.779 48.4142L119.86 50.0966C121.056 49.3278 121.982 48.255 122.643 46.9118L120.849 46.0284ZM118.789 48.4074C117.926 48.947 116.962 49.2206 115.872 49.2206V51.2206C117.319 51.2206 118.654 50.8508 119.849 50.1034L118.789 48.4074ZM115.872 49.2206C114.947 49.2206 114.166 49.0304 113.502 48.6764L112.561 50.4411C113.552 50.9696 114.664 51.2206 115.872 51.2206V49.2206ZM113.511 48.6809C112.831 48.31 112.325 47.8474 111.964 47.2994L110.293 48.3986C110.852 49.2478 111.615 49.9251 112.553 50.4367L113.511 48.6809ZM110.129 47.849V57.3355H112.129V47.849H110.129ZM111.129 56.3355H106.413V58.3355H111.129V56.3355ZM107.413 57.3355V34.6119H105.413V57.3355H107.413ZM106.413 35.6119H111.129V33.6119H106.413V35.6119ZM110.129 34.6119V36.7905H112.129V34.6119H110.129ZM118.858 42.2784C118.858 40.9084 118.467 39.7083 117.572 38.8135L116.158 40.2278C116.587 40.6567 116.858 41.2951 116.858 42.2784H118.858ZM117.591 38.8334C116.755 37.9488 115.69 37.5003 114.466 37.5003V39.5003C115.153 39.5003 115.688 39.732 116.138 40.2078L117.591 38.8334ZM114.466 37.5003C113.254 37.5003 112.197 37.9522 111.35 38.8233L112.783 40.218C113.259 39.7286 113.802 39.5003 114.466 39.5003V37.5003ZM111.34 38.8334C110.479 39.7438 110.101 40.9423 110.101 42.306H112.101C112.101 41.3164 112.367 40.6579 112.793 40.2078L111.34 38.8334ZM110.101 42.306C110.101 43.6696 110.479 44.8681 111.34 45.7785L112.793 44.4041C112.367 43.954 112.101 43.2955 112.101 42.306H110.101ZM111.35 45.7886C112.197 46.6597 113.254 47.1116 114.466 47.1116V45.1116C113.802 45.1116 113.259 44.8833 112.783 44.3939L111.35 45.7886ZM114.466 47.1116C115.677 47.1116 116.734 46.6597 117.582 45.7886L116.148 44.3939C115.672 44.8833 115.13 45.1116 114.466 45.1116V47.1116ZM117.591 45.779C118.466 44.8551 118.858 43.6508 118.858 42.2784H116.858C116.858 43.2593 116.587 43.9301 116.139 44.4035L117.591 45.779ZM124.523 38.1142L123.632 37.6615L123.626 37.6725L124.523 38.1142ZM126.978 35.3565L127.508 36.2045L127.508 36.2045L126.978 35.3565ZM133.265 35.0531L132.787 35.9311L132.795 35.9355L133.265 35.0531ZM135.168 36.7905L134.317 37.3146L136.168 40.3235V36.7905H135.168ZM135.168 34.6119V33.6119H134.168V34.6119H135.168ZM139.884 34.6119H140.884V33.6119H139.884V34.6119ZM139.884 50V51H140.884V50H139.884ZM135.168 50H134.168V51H135.168V50ZM135.168 47.8214H136.168V44.4084L134.326 47.2817L135.168 47.8214ZM133.238 49.5588L132.767 48.6764L132.759 48.6809L133.238 49.5588ZM126.978 49.2554L126.437 50.0967L126.448 50.1034L126.978 49.2554ZM124.523 46.4701L123.624 46.9064L123.628 46.9146L123.632 46.9228L124.523 46.4701ZM134.175 39.5206L133.449 40.2079L133.459 40.218L134.175 39.5206ZM129.405 39.5206L128.688 38.8233L128.688 38.8236L129.405 39.5206ZM129.405 45.0913L128.669 45.7687L128.678 45.7788L128.688 45.7886L129.405 45.0913ZM134.175 45.0913L133.459 44.3938L133.449 44.4041L134.175 45.0913ZM124.641 42.2784C124.641 40.822 124.911 39.5901 125.421 38.5559L123.626 37.6725C122.959 39.0284 122.641 40.5725 122.641 42.2784H124.641ZM125.415 38.5669C125.948 37.5167 126.648 36.7417 127.508 36.2045L126.448 34.5085C125.248 35.2582 124.312 36.3216 123.632 37.6615L125.415 38.5669ZM127.508 36.2045C128.371 35.6649 129.335 35.3913 130.425 35.3913V33.3913C128.978 33.3913 127.644 33.7611 126.448 34.5085L127.508 36.2045ZM130.425 35.3913C131.372 35.3913 132.149 35.583 132.787 35.931L133.744 34.1752C132.764 33.6408 131.647 33.3913 130.425 33.3913V35.3913ZM132.795 35.9355C133.484 36.303 133.979 36.7654 134.317 37.3146L136.02 36.2664C135.475 35.3816 134.702 34.6858 133.736 34.1708L132.795 35.9355ZM136.168 36.7905V34.6119H134.168V36.7905H136.168ZM135.168 35.6119H139.884V33.6119H135.168V35.6119ZM138.884 34.6119V50H140.884V34.6119H138.884ZM139.884 49H135.168V51H139.884V49ZM136.168 50V47.8214H134.168V50H136.168ZM134.326 47.2817C133.968 47.8404 133.459 48.3074 132.767 48.6764L133.708 50.4411C134.671 49.9276 135.449 49.2364 136.01 48.3611L134.326 47.2817ZM132.759 48.6809C132.121 49.0289 131.344 49.2206 130.397 49.2206V51.2206C131.62 51.2206 132.737 50.9711 133.717 50.4367L132.759 48.6809ZM130.397 49.2206C129.329 49.2206 128.374 48.9485 127.508 48.4074L126.448 50.1034C127.641 50.8493 128.966 51.2206 130.397 51.2206V49.2206ZM127.519 48.4142C126.652 47.8574 125.949 47.0696 125.415 46.0174L123.632 46.9228C124.311 48.2607 125.244 49.3297 126.437 50.0966L127.519 48.4142ZM125.423 46.0338C124.911 44.978 124.641 43.7343 124.641 42.2784H122.641C122.641 43.9847 122.959 45.5355 123.624 46.9064L125.423 46.0338ZM136.168 42.306C136.168 40.9347 135.777 39.7326 134.892 38.8233L133.459 40.218C133.898 40.6691 134.168 41.3239 134.168 42.306H136.168ZM134.902 38.8334C134.069 37.9532 133.016 37.5003 131.804 37.5003V39.5003C132.467 39.5003 132.995 39.7276 133.449 40.2078L134.902 38.8334ZM131.804 37.5003C130.593 37.5003 129.535 37.9522 128.688 38.8233L130.121 40.218C130.598 39.7286 131.14 39.5003 131.804 39.5003V37.5003ZM128.688 38.8236C127.817 39.7196 127.439 40.9161 127.439 42.2784H129.439C129.439 41.2874 129.706 40.6454 130.122 40.2177L128.688 38.8236ZM127.439 42.2784C127.439 43.6433 127.817 44.844 128.669 45.7687L130.14 44.4138C129.705 43.9412 129.439 43.2667 129.439 42.2784H127.439ZM128.688 45.7886C129.535 46.6597 130.593 47.1116 131.804 47.1116V45.1116C131.14 45.1116 130.598 44.8833 130.121 44.3939L128.688 45.7886ZM131.804 47.1116C133.016 47.1116 134.069 46.6587 134.902 45.7785L133.449 44.4041C132.995 44.8843 132.467 45.1116 131.804 45.1116V47.1116ZM134.892 45.7886C135.777 44.8793 136.168 43.6772 136.168 42.306H134.168C134.168 43.288 133.898 43.9428 133.459 44.3939L134.892 45.7886ZM147.46 37.1766H146.46V40.5405L148.297 37.7229L147.46 37.1766ZM149.528 35.191L150.028 36.0569L150.035 36.0528L150.043 36.0485L149.528 35.191ZM152.286 34.4464H153.286V33.4464H152.286V34.4464ZM152.286 39.4379V40.4379H153.286V39.4379H152.286ZM148.342 40.2101L148.987 40.9744L148.994 40.9686L149.001 40.9627L148.342 40.2101ZM147.46 50V51H148.46V50H147.46ZM142.744 50H141.744V51H142.744V50ZM142.744 34.6119V33.6119H141.744V34.6119H142.744ZM147.46 34.6119H148.46V33.6119H147.46V34.6119ZM148.297 37.7229C148.768 37.001 149.345 36.4519 150.028 36.0569L149.028 34.3252C148.057 34.8862 147.254 35.6607 146.622 36.6303L148.297 37.7229ZM150.043 36.0485C150.707 35.6499 151.447 35.4464 152.286 35.4464V33.4464C151.102 33.4464 150.004 33.7393 149.014 34.3335L150.043 36.0485ZM151.286 34.4464V39.4379H153.286V34.4464H151.286ZM152.286 38.4379H150.99V40.4379H152.286V38.4379ZM150.99 38.4379C149.689 38.4379 148.527 38.7195 147.684 39.4575L149.001 40.9627C149.334 40.6711 149.937 40.4379 150.99 40.4379V38.4379ZM147.697 39.4458C146.772 40.2262 146.46 41.4807 146.46 42.8575H148.46C148.46 41.6972 148.735 41.1867 148.987 40.9744L147.697 39.4458ZM146.46 42.8575V50H148.46V42.8575H146.46ZM147.46 49H142.744V51H147.46V49ZM143.744 50V34.6119H141.744V50H143.744ZM142.744 35.6119H147.46V33.6119H142.744V35.6119ZM146.46 34.6119V37.1766H148.46V34.6119H146.46ZM162.565 46.0013H163.565V45.0013H162.565V46.0013ZM162.565 50V51H163.565V50H162.565ZM156.167 48.759L155.504 49.5081L155.512 49.5152L156.167 48.759ZM154.733 38.5279H155.733V37.5279H154.733V38.5279ZM152.858 38.5279H151.858V39.5279H152.858V38.5279ZM152.858 34.6119V33.6119H151.858V34.6119H152.858ZM154.733 34.6119V35.6119H155.733V34.6119H154.733ZM154.733 30.8614V29.8614H153.733V30.8614H154.733ZM159.448 30.8614H160.448V29.8614H159.448V30.8614ZM159.448 34.6119H158.448V35.6119H159.448V34.6119ZM162.537 34.6119H163.537V33.6119H162.537V34.6119ZM162.537 38.5279V39.5279H163.537V38.5279H162.537ZM159.448 38.5279V37.5279H158.448V38.5279H159.448ZM159.779 45.698L159.104 46.4351L159.104 46.4351L159.779 45.698ZM161.565 46.0013V50H163.565V46.0013H161.565ZM162.565 49H160.166V51H162.565V49ZM160.166 49C158.611 49 157.54 48.6249 156.821 48.0029L155.512 49.5152C156.706 50.5478 158.301 51 160.166 51V49ZM156.829 48.01C156.174 47.4306 155.733 46.3974 155.733 44.65H153.733C153.733 46.6899 154.247 48.3961 155.504 49.508L156.829 48.01ZM155.733 44.65V38.5279H153.733V44.65H155.733ZM154.733 37.5279H152.858V39.5279H154.733V37.5279ZM153.858 38.5279V34.6119H151.858V38.5279H153.858ZM152.858 35.6119H154.733V33.6119H152.858V35.6119ZM155.733 34.6119V30.8614H153.733V34.6119H155.733ZM154.733 31.8614H159.448V29.8614H154.733V31.8614ZM158.448 30.8614V34.6119H160.448V30.8614H158.448ZM159.448 35.6119H162.537V33.6119H159.448V35.6119ZM161.537 34.6119V38.5279H163.537V34.6119H161.537ZM162.537 37.5279H159.448V39.5279H162.537V37.5279ZM158.448 38.5279V44.7052H160.448V38.5279H158.448ZM158.448 44.7052C158.448 45.2961 158.588 45.962 159.104 46.4351L160.455 44.9608C160.489 44.9922 160.49 45.013 160.48 44.9819C160.468 44.9449 160.448 44.8596 160.448 44.7052H158.448ZM159.104 46.4351C159.603 46.8923 160.283 47.0013 160.883 47.0013V45.0013C160.686 45.0013 160.559 44.9814 160.486 44.9613C160.414 44.9415 160.421 44.9294 160.455 44.9608L159.104 46.4351ZM160.883 47.0013H162.565V45.0013H160.883V47.0013ZM180.359 34.6119L181.279 35.0033L181.871 33.6119H180.359V34.6119ZM170.707 57.308V58.308H171.368L171.627 57.6993L170.707 57.308ZM165.633 57.308L164.721 56.8971L164.085 58.308H165.633V57.308ZM169.163 49.476L170.074 49.8869L170.253 49.4896L170.084 49.0879L169.163 49.476ZM162.903 34.6119V33.6119H161.396L161.981 35L162.903 34.6119ZM168.17 34.6119L169.108 34.2652L168.866 33.6119H168.17V34.6119ZM171.727 44.2364L170.789 44.5831L171.731 47.1306L172.666 44.5807L171.727 44.2364ZM175.257 34.6119V33.6119H174.559L174.318 34.2676L175.257 34.6119ZM179.439 34.2205L169.787 56.9166L171.627 57.6993L181.279 35.0033L179.439 34.2205ZM170.707 56.308H165.633V58.308H170.707V56.308ZM166.544 57.7189L170.074 49.8869L168.251 49.0651L164.721 56.8971L166.544 57.7189ZM170.084 49.0879L163.824 34.2238L161.981 35L168.241 49.8642L170.084 49.0879ZM162.903 35.6119H168.17V33.6119H162.903V35.6119ZM167.232 34.9586L170.789 44.5831L172.665 43.8897L169.108 34.2652L167.232 34.9586ZM172.666 44.5807L176.196 34.9562L174.318 34.2676L170.788 43.892L172.666 44.5807ZM175.257 35.6119H180.359V33.6119H175.257V35.6119Z" fill="#F5CD7E"/>
<defs>
<filter id="filter0_d_519_3" x="29.7954" y="0.815186" width="28.4092" height="28.3543" filterUnits="userSpaceOnUse" color-interpolation-filters="sRGB">
<feFlood flood-opacity="0" result="BackgroundImageFix"/>
<feColorMatrix in="SourceAlpha" type="matrix" values="0 0 0 0 0 0 0 0 0 0 0 0 0 0 0 0 0 0 127 0" result="hardAlpha"/>
<feOffset dy="4"/>
<feGaussianBlur stdDeviation="2"/>
<feComposite in2="hardAlpha" operator="out"/>
<feColorMatrix type="matrix" values="0 0 0 0 0 0 0 0 0 0 0 0 0 0 0 0 0 0 0.25 0"/>
<feBlend mode="normal" in2="BackgroundImageFix" result="effect1_dropShadow_519_3"/>
<feBlend mode="normal" in="SourceGraphic" in2="effect1_dropShadow_519_3" result="shape"/>
</filter>
<radialGradient id="paint0_radial_519_3" cx="0" cy="0" r="1" gradientUnits="userSpaceOnUse" gradientTransform="translate(27 35.5) rotate(90) scale(27.5 27)">
<stop offset="0.288855" stop-color="#F5CD7E"/>
<stop offset="0.9999" stop-color="#FDF7C3"/>
<stop offset="1" stop-color="#FDF7C3"/>
</radialGradient>
</defs>
</svg>
